<?xml version="1.0" standalone="no"?>
<!DOCTYPE svg PUBLIC "-//W3C//DTD SVG 20010904//EN"
 "http://www.w3.org/TR/2001/REC-SVG-20010904/DTD/svg10.dtd">
<svg version="1.0" xmlns="http://www.w3.org/2000/svg"
 width="1280.000000pt" height="790.000000pt" viewBox="0 0 1280.000000 790.000000"
 preserveAspectRatio="xMidYMid meet">
<g transform="translate(0.000000,790.000000) scale(0.100000,-0.100000)"
fill="#000000" stroke="none">
<path d="M7115 7294 c-744 -40 -1495 -159 -1760 -280 -72 -33 -40 -29 138 16
435 110 888 179 1387 210 261 17 1121 14 1365 -5 234 -17 277 -18 255 -5 -59
34 -1067 81 -1385 64z"/>
<path d="M8651 7206 c2 -3 78 -23 168 -46 436 -109 1073 -318 1002 -328 -13
-2 -113 1 -223 7 -395 22 -779 13 -1043 -25 -292 -41 -513 -128 -620 -245 -31
-34 -21 -31 31 8 54 40 180 92 285 118 132 32 308 51 639 71 553 32 619 30
726 -21 l49 -23 -53 -1 c-47 -1 -58 -5 -86 -33 -19 -19 -44 -64 -60 -106 l-28
-73 -19 31 c-15 23 -43 42 -107 72 -48 22 -100 49 -115 60 -28 20 -34 20 -375
9 -448 -14 -572 -34 -737 -119 -93 -48 -207 -162 -257 -257 -81 -158 -110
-277 -163 -670 -41 -309 -56 -395 -91 -525 -13 -51 -22 -95 -20 -97 2 -3 116
3 253 11 241 16 394 29 983 81 655 57 1203 84 1463 71 82 -5 147 -9 145 -11
-4 -4 -361 -47 -618 -75 -586 -63 -1811 -171 -2151 -189 -92 -5 -172 -11 -177
-15 -6 -4 -91 -16 -189 -27 -518 -59 -1037 -182 -1398 -332 l-100 -42 85 -7
c632 -52 1055 -207 1220 -446 12 -18 20 -35 17 -38 -2 -2 -44 2 -92 11 -277
48 -508 -20 -714 -211 -82 -76 -165 -174 -343 -406 -198 -257 -348 -396 -493
-458 -54 -23 -76 -20 -105 17 -27 35 -26 89 7 248 30 146 27 200 -10 257 -16
24 -31 34 -54 36 -28 3 -40 -4 -83 -49 -35 -37 -53 -50 -60 -43 -8 8 -7 20 1
40 8 22 8 54 -2 132 -11 86 -16 102 -30 102 -24 0 -30 -13 -38 -74 -5 -41 -10
-52 -26 -54 -18 -2 -20 3 -21 60 -2 120 -54 237 -129 287 -40 27 -131 40 -160
24 -13 -8 -6 -11 33 -16 138 -16 214 -111 229 -283 6 -76 2 -84 -31 -59 -33
25 -56 17 -112 -40 -41 -41 -62 -55 -83 -55 -22 0 -30 6 -35 23 -3 15 -24 34
-58 52 -105 56 -145 97 -133 135 8 26 23 25 95 -5 68 -29 112 -32 130 -10 19
22 -10 50 -79 76 -74 27 -83 36 -76 70 6 28 6 28 -24 18 -31 -11 -63 -49 -113
-133 -35 -58 -62 -63 -53 -8 24 141 66 194 290 364 634 481 1676 842 2705 936
72 7 74 8 81 37 4 17 18 58 30 91 20 54 22 65 10 90 l-13 28 -17 -52 c-22 -64
-57 -102 -135 -148 l-59 -35 -24 23 c-22 20 -36 23 -133 26 -187 7 -526 -50
-1002 -167 -411 -101 -688 -200 -1013 -361 -439 -217 -752 -437 -1065 -749
-281 -279 -342 -325 -554 -416 -295 -125 -480 -134 -554 -25 -34 50 -44 101
-51 266 -6 145 -15 184 -42 184 -12 0 -31 -47 -68 -175 -31 -102 -79 -217
-102 -240 -5 -5 -2 12 7 38 24 72 16 164 -19 211 l-28 36 28 0 c16 0 38 7 50
15 28 20 48 78 34 102 -10 17 -10 16 -11 -3 0 -38 -58 -71 -76 -43 -3 6 5 23
19 37 52 54 107 211 107 300 l-1 37 -35 -66 c-19 -36 -48 -81 -64 -100 l-29
-36 -63 13 c-35 8 -81 14 -103 14 -90 -1 -191 -39 -247 -96 -35 -34 -35 -34
-85 -23 -65 15 -117 5 -143 -28 l-20 -26 6 64 c40 434 200 754 510 1024 75 65
67 52 -58 -93 -188 -218 -307 -446 -296 -570 3 -35 6 -32 113 124 217 313 365
473 557 601 235 157 666 324 971 377 80 14 186 50 176 60 -8 8 -312 -36 -494
-70 -314 -61 -593 -148 -798 -250 -207 -104 -313 -188 -444 -351 -85 -108
-119 -128 -230 -144 -749 -102 -1202 -608 -1397 -1559 -14 -69 -28 -135 -31
-147 -3 -12 -20 -29 -38 -38 -17 -9 -40 -27 -50 -40 -24 -34 -49 -136 -45
-192 3 -44 6 -49 43 -70 61 -33 208 -72 301 -80 l84 -6 16 -54 c18 -60 51 -87
82 -66 17 11 18 17 6 64 -4 19 -1 28 12 33 29 11 60 -20 87 -86 l25 -63 -50
-3 c-27 -2 -51 -9 -54 -15 -8 -22 24 -219 51 -312 69 -238 211 -445 415 -605
62 -50 77 -66 65 -72 -8 -5 -70 -22 -137 -39 -202 -48 -270 -69 -331 -101 -31
-17 -57 -34 -57 -38 0 -11 128 -94 205 -132 260 -129 647 -215 1190 -263 94
-8 349 -26 567 -40 219 -14 509 -34 645 -45 569 -46 707 -52 1053 -47 602 9
1134 66 1614 173 179 40 317 81 621 184 262 89 503 154 950 260 638 150 1302
317 1970 495 819 219 803 215 1130 270 297 49 394 72 502 116 114 48 282 176
254 194 -6 3 -47 10 -90 14 -112 12 -116 16 -81 92 21 48 26 89 9 89 -5 0 -25
-33 -43 -72 -52 -112 -85 -151 -160 -188 -90 -45 -185 -52 -250 -20 -92 44
-165 159 -205 320 -109 447 12 1117 245 1357 75 76 131 104 215 104 97 1 162
-40 231 -145 65 -101 104 -250 116 -452 l7 -109 35 -4 c19 -2 113 5 208 15
l173 18 25 41 c17 30 24 57 24 93 0 51 0 52 30 52 43 0 87 25 105 60 8 16 15
55 15 89 0 84 -25 111 -133 147 -45 14 -86 30 -91 34 -4 5 -25 75 -46 157 -45
176 -76 263 -140 399 -157 336 -399 563 -725 684 -81 30 -58 -19 -185 380
-214 668 -390 975 -712 1246 -181 152 -310 223 -588 327 -367 136 -699 234
-939 277 -114 20 -148 24 -140 16z m958 -565 c11 -7 4 -15 -27 -35 -24 -15
-42 -34 -44 -48 l-3 -23 -13 23 c-11 20 -11 27 3 48 9 14 26 29 38 34 28 11
29 11 46 1z m111 -10 c0 -5 -9 -11 -20 -14 -22 -6 -28 8 -7 16 19 8 27 8 27
-2z m111 -122 c357 -99 707 -457 882 -904 58 -146 58 -140 -5 -159 -80 -24
-284 -65 -410 -81 -143 -19 -391 -19 -479 -1 -58 13 -158 53 -147 60 1 1 89
-2 193 -7 280 -14 504 9 733 75 90 26 91 14 -18 233 -218 437 -510 691 -913
796 l-72 18 83 -5 c45 -3 114 -14 153 -25z m-693 -55 c90 -7 91 -7 102 -37 14
-43 13 -139 -6 -280 -9 -67 -13 -141 -10 -164 l6 -43 -276 0 c-346 0 -459 15
-556 76 -84 53 -115 181 -65 269 55 98 221 159 467 174 190 11 235 12 338 5z
m266 -154 c51 -155 81 -298 136 -642 28 -170 50 -315 50 -322 0 -9 -25 -15
-82 -19 -46 -3 -211 -26 -368 -51 -240 -38 -528 -80 -695 -101 -118 -15 -363
-23 -461 -15 -145 12 -208 32 -258 81 -21 22 -37 42 -34 44 3 3 36 -2 74 -12
99 -25 425 -22 679 6 191 21 1048 132 1053 136 1 1 -9 47 -22 101 -31 125 -47
231 -86 569 -17 149 -35 288 -40 310 -5 22 -9 49 -9 60 1 29 21 -17 63 -145z
m290 100 c268 -53 492 -172 600 -318 42 -57 40 -70 -14 -115 -50 -43 -112 -49
-386 -40 l-248 8 -37 198 c-20 108 -42 211 -48 229 -16 46 -14 67 7 63 9 -2
66 -14 126 -25z m-605 -538 c19 -9 41 -27 49 -39 14 -23 14 -23 -44 -23 -70 0
-375 40 -387 50 -5 4 29 13 75 19 45 6 94 13 108 15 47 8 165 -5 199 -22z
m741 6 c0 -7 -7 -31 -16 -55 -14 -37 -19 -41 -35 -32 -24 12 -25 56 -2 81 18
20 53 24 53 6z m1342 -934 c190 -72 238 -101 238 -145 0 -14 -45 -65 -128
-147 -188 -186 -307 -375 -407 -646 -100 -272 -172 -687 -190 -1101 -8 -203
-12 -225 -36 -225 -18 0 -20 4 -13 45 5 37 3 46 -11 52 -10 3 -129 -11 -264
-31 -726 -111 -1498 -264 -2199 -436 -155 -39 -287 -70 -292 -70 -6 0 -10 6
-10 14 0 8 -18 36 -40 62 -35 42 -40 55 -38 89 l3 40 290 42 c645 94 1405 221
2114 354 146 27 267 51 269 54 10 9 5 92 -7 152 -12 55 -11 65 12 139 40 126
72 284 137 674 94 555 159 777 283 960 34 49 146 170 158 170 4 0 63 -21 131
-46z m-1504 -110 c2 -11 -6 -28 -17 -38 -17 -15 -48 -20 -181 -27 -89 -5 -166
-7 -171 -4 -15 10 -10 41 11 60 21 19 164 34 295 31 52 -1 60 -4 63 -22z m77
-229 c30 -98 60 -249 81 -404 28 -204 16 -606 -31 -1056 -23 -214 -27 -245
-36 -245 -14 0 -10 195 11 590 24 446 21 502 -46 939 -19 123 -34 240 -34 260
1 34 1 35 16 16 8 -11 26 -56 39 -100z m-7647 -167 c-5 -29 -28 -100 -50 -158
-119 -310 -148 -416 -148 -545 0 -80 0 -81 -30 -92 -23 -9 -37 -26 -59 -76
-28 -62 -60 -97 -90 -97 -12 0 -13 30 -8 200 4 110 3 200 -1 200 -5 0 -21 -26
-36 -58 -15 -32 -36 -69 -46 -82 l-19 -25 -9 26 c-6 14 -18 75 -26 135 -19
125 -39 171 -84 193 -17 9 -32 19 -32 24 0 13 70 8 99 -7 34 -18 91 -81 91
-101 0 -8 5 -15 10 -15 6 0 10 13 10 30 0 71 -128 157 -222 148 -26 -3 -45 -1
-42 3 12 21 130 103 201 141 63 35 472 206 494 208 4 0 2 -24 -3 -52z m-660
-404 c92 -46 141 -145 129 -261 -3 -30 -8 -57 -11 -60 -2 -2 -16 3 -30 12 -27
18 -29 17 -93 -31 -41 -31 -98 -52 -110 -40 -10 10 29 46 49 46 10 0 18 4 18
9 0 10 -45 26 -102 36 -36 6 -37 7 -35 43 2 34 -1 38 -48 64 -27 15 -54 29
-60 31 -13 5 10 78 35 110 53 68 168 86 258 41z m34 -512 c18 -18 -4 -35 -77
-62 -79 -28 -122 -56 -139 -88 -13 -24 -18 -26 -95 -26 l-81 -1 0 61 0 62 43
17 c117 47 317 69 349 37z m3369 -175 c33 -25 51 -88 29 -102 -5 -3 -21 2 -35
11 -35 23 -65 13 -152 -51 -75 -55 -133 -81 -158 -71 -25 9 -45 60 -36 92 6
24 14 30 50 36 23 4 54 13 69 21 15 8 53 28 86 46 61 33 119 40 147 18z
m-2278 -65 c-11 -27 -84 -117 -97 -117 -6 0 -12 8 -14 18 -2 11 16 37 50 71
53 52 73 61 61 28z m-1253 -57 c0 -11 -83 -56 -139 -75 -103 -34 -187 -23
-225 32 -25 35 -19 39 19 14 67 -46 156 -42 290 13 59 23 55 22 55 16z m5357
-39 c38 -8 90 -24 116 -35 55 -24 61 -48 22 -86 -29 -30 -68 -32 -146 -9 -228
68 -459 -138 -584 -520 -65 -200 -85 -370 -73 -616 17 -360 133 -644 299 -735
47 -26 64 -30 134 -30 72 1 88 4 156 37 239 116 416 495 460 983 23 264 -2
412 -102 612 -68 135 -72 147 -73 213 0 87 12 102 48 60 108 -129 196 -373
232 -640 19 -149 15 -442 -10 -585 -54 -318 -162 -560 -321 -721 -143 -144
-286 -190 -459 -150 -221 52 -389 227 -481 500 -125 372 -82 913 103 1281 123
247 279 395 467 441 68 17 131 17 212 0z m-2294 -71 c12 -26 22 -34 39 -32 26
2 38 -30 14 -39 -31 -12 -67 6 -82 41 -13 32 -11 65 5 65 4 0 15 -16 24 -35z
m543 -22 c6 -23 1 -32 -29 -58 -19 -17 -64 -41 -99 -52 -69 -24 -168 -44 -168
-34 0 4 47 30 104 58 57 28 116 65 132 82 36 37 52 39 60 4z m-2477 -184 c14
-59 13 -69 -4 -69 -23 0 -35 34 -35 97 0 53 1 56 15 37 8 -12 19 -41 24 -65z
m-1229 40 c7 -11 10 -23 7 -25 -2 -3 -40 -4 -83 -2 l-79 3 35 22 c46 30 105
31 120 2z m2355 -153 l40 -12 -26 -17 c-38 -25 -89 -31 -129 -15 l-34 14 22
22 c25 25 64 27 127 8z m2845 -40 c0 -3 -37 -37 -82 -77 -46 -40 -92 -86 -102
-102 -19 -29 -20 -29 -29 -9 -27 60 52 149 163 183 30 9 50 11 50 5z m88 -101
c34 -39 94 -159 117 -234 l7 -23 -43 27 c-83 51 -130 67 -210 72 -87 6 -94 14
-64 72 16 33 123 131 141 131 7 0 30 -20 52 -45z m-5828 -21 c39 -16 40 -17
24 -35 -25 -28 -52 -33 -79 -15 -36 24 -32 61 7 65 4 1 26 -6 48 -15z m1020
-34 c262 -24 592 -50 1140 -90 228 -16 442 -33 474 -36 l60 -6 -29 -16 c-48
-25 -148 -26 -290 -4 -71 12 -231 28 -355 37 -392 28 -730 55 -885 72 -82 8
-198 15 -257 14 -96 -1 -110 1 -128 19 -30 30 -25 41 18 35 20 -3 134 -14 252
-25z m3553 -147 c-38 -15 -158 -39 -263 -53 -149 -19 -620 -30 -880 -20 -135
5 -276 6 -315 3 -93 -7 -150 8 -170 47 -8 16 -15 31 -15 33 0 2 376 4 836 3
646 -1 829 -4 807 -13z m-3368 -188 c94 -8 260 -24 370 -35 494 -48 786 -70
970 -70 l130 -1 -28 -24 c-47 -42 -93 -48 -271 -36 -89 7 -228 16 -311 22
-264 18 -1451 150 -1480 164 -20 10 454 -5 620 -20z m3399 -110 c-9 -14 -35
-37 -58 -50 -71 -42 -149 -56 -328 -62 -167 -6 -282 0 -708 37 -124 11 -289
21 -367 22 -99 2 -136 6 -125 13 11 6 207 10 532 11 525 0 542 1 684 41 51 14
71 15 141 5 44 -7 105 -12 134 -12 46 0 57 4 80 29 23 25 26 26 29 11 2 -11
-4 -31 -14 -45z m-3469 10 c116 -8 305 -24 420 -35 116 -11 301 -28 413 -37
l202 -17 11 -36 c27 -87 19 -466 -10 -484 -20 -13 -1158 118 -1314 150 l-29 6
7 61 c4 34 16 112 26 172 10 61 19 138 19 173 0 58 2 62 23 62 12 0 117 -7
232 -15z m1703 -7 c42 -46 54 -114 25 -140 -23 -19 -57 -28 -73 -18 -10 6 -9
22 4 74 10 37 14 76 11 86 -8 27 7 25 33 -2z m3125 -206 c15 -6 38 -23 51 -37
l23 -25 28 22 28 22 -6 -49 c-9 -61 -54 -156 -101 -211 -43 -51 -126 -108
-191 -133 l-50 -19 -52 35 c-98 65 -165 192 -179 339 l-6 69 213 0 c147 0 223
-4 242 -13z m-1918 -42 c-18 -30 -248 -78 -575 -120 -289 -37 -413 -61 -527
-101 -151 -54 -208 -67 -345 -79 -161 -14 -248 -33 -305 -65 -41 -23 -43 -23
-53 -5 -14 27 -12 76 6 165 9 42 14 94 12 115 l-3 37 220 7 c121 4 384 15 585
26 201 11 392 21 425 23 156 8 566 6 560 -3z m1427 -110 c15 -30 43 -90 62
-132 26 -58 43 -82 68 -98 l33 -20 -37 0 c-51 0 -105 49 -151 138 -29 55 -67
167 -67 197 0 4 15 -2 33 -12 20 -12 42 -39 59 -73z"/>
<path d="M5075 6930 c-137 -46 -289 -118 -390 -186 -227 -151 -436 -376 -603
-651 -71 -117 -199 -375 -257 -520 -90 -226 -87 -217 -70 -203 36 30 111 160
180 312 85 190 153 316 241 448 239 361 555 626 949 796 125 54 106 56 -50 4z"/>
<path d="M5715 6769 c-262 -14 -581 -56 -749 -99 -203 -52 -252 -76 -70 -35
275 63 605 95 1044 102 373 6 417 4 942 -58 493 -57 461 -54 456 -38 -5 15
-14 16 -338 62 -473 68 -865 87 -1285 66z"/>
<path d="M5432 6630 c-242 -10 -519 -38 -561 -56 -29 -13 -32 -17 -20 -28 11
-11 35 -12 109 -5 52 4 206 11 342 15 238 7 248 6 255 -12 4 -10 8 -71 7 -134
0 -97 -6 -141 -38 -275 -52 -222 -76 -358 -76 -430 l0 -62 38 -6 c20 -3 44 -8
53 -12 22 -9 36 32 54 163 21 145 38 166 30 37 -3 -55 -8 -125 -11 -155 -6
-66 6 -92 31 -67 20 21 43 26 125 29 l65 3 2 94 c1 52 7 125 13 162 13 86 13
176 0 184 -6 4 -10 -14 -10 -47 0 -71 -22 -95 -54 -62 -22 22 -20 66 9 186 14
57 25 112 25 124 0 19 3 20 48 13 72 -12 258 -10 286 2 27 13 52 60 42 84 -4
12 -23 15 -85 15 -71 0 -82 2 -96 23 -21 30 -37 94 -30 117 15 47 247 53 395
9 170 -49 389 -148 496 -224 143 -102 207 -263 205 -520 l-1 -131 68 -44 c52
-35 67 -50 67 -69 0 -30 -21 -39 -27 -13 -3 11 -32 33 -68 51 -74 36 -90 39
-83 12 4 -16 -6 -25 -49 -47 -80 -40 -88 -58 -28 -68 22 -3 75 -17 117 -31 43
-14 101 -25 128 -25 l51 0 41 63 c112 171 158 327 157 532 -1 188 -41 319
-128 413 -121 131 -385 172 -1123 172 l-313 0 0 -56 c0 -67 10 -88 63 -137
l42 -38 -30 5 c-16 3 -56 8 -87 12 l-58 6 0 97 c0 149 5 141 -109 139 -53 0
-178 -4 -279 -8z m247 -333 c-10 -81 -26 -180 -34 -219 -16 -78 -35 -112 -35
-62 0 55 56 365 76 423 12 36 10 -6 -7 -142z"/>
<path d="M4704 6526 c-92 -46 -223 -153 -307 -251 -121 -140 -109 -149 24 -20
70 67 148 133 179 149 l53 29 -7 -39 c-3 -21 -15 -118 -27 -214 -11 -96 -34
-242 -50 -325 -16 -82 -29 -169 -29 -192 0 -42 17 -93 30 -93 4 0 10 33 14 73
3 39 22 173 41 297 20 124 41 296 47 383 l12 157 38 10 c41 12 68 34 68 56 0
20 -9 18 -86 -20z"/>
<path d="M5950 6230 c-8 -16 -9 -43 -1 -108 6 -48 11 -118 11 -156 l0 -68 -30
6 c-16 3 -30 1 -30 -4 0 -10 40 -50 51 -50 35 0 55 131 41 276 -11 113 -22
141 -42 104z"/>
<path d="M4212 5963 c-135 -247 -184 -369 -195 -485 -7 -70 4 -75 21 -12 7 25
57 143 111 263 94 207 148 347 138 357 -2 3 -36 -53 -75 -123z"/>
<path d="M6480 5733 c-36 -10 -86 -30 -111 -45 -46 -27 -119 -99 -119 -118 0
-18 34 -10 59 14 113 108 469 156 628 86 l47 -21 18 23 c10 13 18 26 18 29 0
15 -186 41 -325 45 -122 3 -162 1 -215 -13z"/>
<path d="M4706 5671 c-3 -4 6 -13 19 -19 13 -6 35 -33 49 -60 20 -40 57 -72
81 -72 15 0 1 43 -25 79 -43 58 -109 97 -124 72z"/>
<path d="M5060 5440 c-189 -10 -351 -25 -535 -51 -162 -22 -318 -50 -312 -55
2 -2 116 3 253 11 418 26 919 30 1209 11 274 -18 688 -55 973 -87 101 -11 191
-19 200 -17 30 6 -838 143 -1093 173 -161 19 -489 26 -695 15z"/>
<path d="M7550 5301 c0 -23 5 -41 10 -41 6 0 10 15 10 34 0 19 -4 38 -10 41
-6 4 -10 -10 -10 -34z"/>
<path d="M4255 5176 c-100 -35 -323 -130 -434 -186 -209 -105 -414 -261 -636
-484 -141 -141 -305 -325 -305 -342 0 -4 44 35 98 87 137 132 330 311 442 409
182 159 395 284 775 455 83 37 154 71 160 76 17 16 -28 9 -100 -15z"/>
<path d="M11320 3737 c-175 -48 -299 -255 -361 -602 -48 -272 -27 -561 55
-740 28 -61 86 -130 130 -152 39 -20 123 -20 162 0 81 42 174 181 232 349 74
209 97 357 97 618 0 176 -4 227 -19 280 -55 201 -157 285 -296 247z m19 -436
c45 -23 57 -37 66 -74 9 -32 6 -33 -46 -7 -51 27 -79 55 -79 80 0 25 11 25 59
1z m191 -272 c12 -42 5 -99 -10 -99 -17 0 -30 39 -30 88 0 76 21 82 40 11z
m-513 -225 c21 -137 39 -198 69 -234 31 -36 26 -47 -13 -31 -58 25 -93 109
-101 238 -9 173 20 190 45 27z m252 47 c74 -6 143 -11 152 -11 10 0 24 -7 32
-15 44 -43 -50 -177 -180 -258 -53 -34 -92 -28 -139 21 -43 45 -64 113 -64
213 l0 77 33 -8 c17 -5 93 -14 166 -19z"/>
<path d="M11607 2500 c-14 -44 -14 -65 1 -96 24 -50 36 -42 29 21 -6 61 -22
100 -30 75z"/>
</g>
</svg>
