<svg xmlns="http://www.w3.org/2000/svg" version="1.1" x="0" y="0" width="729.1" height="119" viewBox="0 0 729.1 119" xml:space="preserve"><style>.s0{fill:#3C3C3C;}</style><path d="M176.1 0c1 0.2 2.1 0.5 3.1 0.6 6.8 0.2 13.7 0.3 20.5 0.7 6.9 0.4 13.8 1.2 20.8 1.7 1.5 0.1 2.4 0.8 2.6 2.3 1.4 7.7 3 15.4 4.1 23.1 1.7 11.9 2.2 24 1.8 36 -0.2 5.6-0.6 11.1-1.1 16.7 -0.7 6.9-1.6 13.8-2.3 20.7 -0.3 3.2-1.9 5.2-4.7 6.6 -9.3 4.3-18.8 7.9-29.1 8.8 -3.5 0.3-7 0.8-10.5 1.2 -0.6 0.1-1.1 0.4-1.7 0.5 -2.2 0-4.3 0-6.5 0 0.4-2.8 1-5.6 1.1-8.4 0.3-6.5 0.5-12.9 0.7-19.4 0-1.2 0.1-2.4 0.1-3.5 0.2-5.6 0.4-11.2 0.4-16.7 0-2.1-0.5-2.6-2.7-2.6 -9.8 0-19.6 0-29.4 0 -2.2 0-2.4 0.3-2.6 2.6 -0.4 4.1-0.7 8.2-1.2 12.3 -0.7 6.3-1.6 12.6-2.2 19 -0.3 3.2-2.2 5.2-4.7 6.2 -7.5 3.2-14.9 6.6-23.1 7.8 -3.7 0.6-7.4 1-11.1 1.5 -2.2 0.3-4.4 0.8-6.6 1.2 -15.3 0-30.6 0-45.9 0 -0.5-0.2-1.1-0.5-1.7-0.5 -7.4-0.6-14.5-2.2-21.6-4.4 -5.1-1.6-10.2-2.7-14.9-5.3 -2.7-1.5-4.6-3.6-4.9-6.9 -0.7-7.5-1.5-15-2.4-22.5 -0.1-0.8-0.4-1.5-0.6-2.2C0 65 0 52.8 0 40.6c0.2-0.7 0.5-1.5 0.6-2.2C1.4 31 2.2 23.6 3.1 16.3c0.5-3.6 1.3-7.1 2-10.7C5.6 3.4 6 3.2 8 3c6.7-0.6 13.4-1.3 20.1-1.7 6.6-0.4 13.3-0.4 19.9-0.7 1.2 0 2.5-0.4 3.7-0.6 0.8 0 1.6 0 2.4 0 0 2.1 0 4.1-0.1 6.2 -0.3 7.9-1 15.8-1.1 23.8 -0.2 20-0.1 40 0 60 0 2.9 0.3 5.9 0.5 8.8 0.3 3.1 0.4 3.1 3.7 3.1 8.5 0 17.1 0 25.6 0 0.5 0 1 0 1.5 0 1.8-0.2 2.1-0.5 2.3-2.4 0.2-3 0.5-6.1 0.6-9.1 0.3-10.6-0.2-21.2 0.5-31.7 0.4-6.3-0.3-12.7-0.5-19.1 -0.2-8.7-0.4-17.4-0.6-26.1C86.5 10 86.2 6.6 86 3.2c-0.1-1.1-0.4-2.1-0.6-3.2 16.1 0 32.2 0 48.3 0 1.2 6.1 2.7 12.1 3.6 18.2 1.4 9.7 2.4 19.4 3.4 29.2 0.3 3.1 0.4 3.3 3.5 3.3 9.3 0 18.6 0 28 0 3 0 3.4-0.3 3.4-3.4 -0.1-7-0.3-13.9-0.6-20.9 -0.3-8.8-0.8-17.6-1.2-26.4C174.5 0 175.3 0 176.1 0zM420.5 119c-0.8-0.2-1.7-0.5-2.5-0.6 -3.8-0.3-7.6-0.4-11.4-0.7 -0.5 0-1-0.1-1.5-0.2 -3-0.5-3.2-0.6-3.7-3.6 -1.1-6-2.1-12-2.1-18.1 0-2.1-0.6-4.3-0.5-6.4 0.3-6.2 0.9-12.5 1.4-18.7 0.2-2.5 0.8-5 1.3-7.5 0.5-2.4 1-2.9 3.2-3.1 3.5-0.3 7-0.6 10.5-0.7 9.1-0.3 18.2-0.5 27.3-0.6 7.6 0 15 1.7 22.1 4.4 2.5 0.9 4.1 2.4 4.3 5.3 0.3 4.4 0.9 8.7 1.4 13.1 0.2 1.8-0.6 2.9-2.8 3.6 -2.9 0.9-5.9 1.6-8.8 2.3 -1 0.3-2.1 0.4-3.1 1 3.1 0.7 6.2 1.3 9.4 2 1.2 0.3 2.5 0.7 3.6 1.2 1.3 0.6 1.9 1.7 1.8 3.1 -0.5 4.8-1.1 9.5-1.6 14.3 -0.2 2.3-1.4 3.7-3.5 4.6 -5.7 2.5-11.7 3.9-17.9 4.5 -1 0.1-1.9 0.4-2.8 0.6C436.6 119 428.6 119 420.5 119zM426.4 83.8c0.5 0.1 1.1 0.4 1.6 0.4 4.3 0 8.6 0.1 12.9 0 2.2 0 2.7-0.7 2.5-3 -0.2-3.6-0.4-7.2-0.6-10.8 -0.1-2.2-0.5-2.6-2.6-2.7 -3.7-0.1-7.4-0.1-11.2 0 -2.3 0-2.7 0.4-2.8 2.8C426.3 74.8 426.4 79.1 426.4 83.8zM434.3 93.6C434.3 93.6 434.3 93.6 434.3 93.6c-2.1 0-4.1-0.1-6.2 0 -1.9 0.1-2.3 0.6-2.2 2.3 0.2 3.6 0.3 7.2 0.5 10.8 0.1 2.2 0.4 2.4 2.6 2.7 3.8 0.6 7.6 0.6 11.4 0 2.2-0.3 2.5-0.5 2.5-2.8 0.1-3.5 0.1-7.1 0-10.6 0-2.1-0.5-2.5-2.7-2.6C438.2 93.6 436.3 93.6 434.3 93.6zM497.7 119c-0.6-0.2-1.3-0.5-1.9-0.6 -3.7-0.3-7.4-0.4-11.1-0.6 -0.7 0-1.4 0-2.1-0.1 -2.8-0.4-3.3-0.8-3.8-3.6 -1.4-7.6-2.3-15.3-2.3-23.1 -0.1-9.1 0.5-18.2 2.3-27.2 0.6-2.9 1.2-3.4 4.1-3.6 12.7-1 25.4-1.4 38.2-1.2 7.7 0.1 15.1 2.1 22.3 4.9 1.4 0.5 2.3 1.5 2.6 3 0.4 1.8 0.7 3.7 0.9 5.5 0.4 2.8 0.7 5.6 0.9 8.5 0.2 3.3-0.4 4.2-3.6 5.1 -2.7 0.8-5.5 1.3-8.3 1.9 -0.9 0.2-1.9 0.4-2.9 1 3.1 0.6 6.2 1.3 9.3 1.9 1 0.2 1.9 0.4 2.8 0.7 1.7 0.5 2.8 1.7 2.6 3.5 -0.5 5.3-1.1 10.5-1.7 15.7 -0.2 1.5-1.4 2.2-2.6 2.9 -4.4 2.4-9.1 3.5-14 4.3 -2.5 0.4-5 0.8-7.5 1.2C513.8 119 505.7 119 497.7 119zM512 84.2C512 84.2 512 84.2 512 84.2c2.1 0 4.1 0.1 6.2 0 1.9-0.1 2.4-0.5 2.4-2.2 -0.1-4.1-0.3-8.2-0.6-12.3 -0.1-1.3-0.8-1.9-2.1-1.9 -4 0-8-0.1-12 0 -1.8 0-2.3 0.5-2.3 2.3 -0.1 3.9-0.1 7.8 0 11.7 0 1.9 0.5 2.3 2.6 2.4C508.1 84.3 510 84.2 512 84.2zM512 93.6C512 93.6 512 93.6 512 93.6c-2.1 0-4.1 0-6.2 0 -1.4 0-2.3 0.6-2.3 2.1 0 3.9 0 7.8 0 11.8 0 1.3 0.7 1.9 2 2.1 4.2 0.7 8.4 0.6 12.6 0 1.1-0.2 1.8-0.7 1.9-1.9 0.2-3.8 0.5-7.6 0.6-11.4 0-2.1-0.5-2.5-2.7-2.6C516 93.6 514 93.6 512 93.6zM261.5 119c-0.8-0.2-1.7-0.5-2.5-0.6 -3.2-0.3-6.4-0.4-9.7-0.7 -2.3-0.2-3-0.6-3.3-2.9 -0.8-5.2-1.5-10.5-2.1-15.7 -0.3-2.9-0.4-5.9-0.6-8.8 -0.1-1.2 0-2.3 0.1-3.5 0.1-2 0.2-4.1 0.5-6.1 0.7-6 1.4-12 2.1-18.1 0.2-1.6 0.9-2.4 2.6-2.6 6.5-0.7 13.1-1.3 19.6-1.1 2.2 0.1 2.6 0.5 2.6 2.6 0 6.8-0.1 13.5-0.3 20.3 0 1.9 0.1 2.3 2.1 2.3 4.3 0.1 8.6 0.1 12.9 0 2 0 2.4-0.7 2.3-2.8 -0.2-4.4-0.3-8.8-0.5-13.2 -0.1-2.2-0.2-4.5-0.4-6.7 -0.1-1.9 0.2-2.4 2-2.4 2.3-0.1 4.7-0.2 7.1 0 4.4 0.3 8.8 0.8 13.2 1.1 2.1 0.1 2.9 1.3 3.2 3.1 0.7 5.3 1.5 10.7 2 16 0.4 3.8 0.7 7.6 0.6 11.4 -0.2 8-0.9 16-2.7 23.9 -0.6 2.9-0.9 3.1-3.9 3.3 -3.4 0.2-6.8 0.4-10.3 0.6 -0.7 0-1.3 0.4-1.9 0.6 -3.1 0-6.3 0-9.4 0 0.2-4.3 0.4-8.6 0.6-12.9 0.2-3.1 0.3-6.2 0.5-9.4 0.2-2.4-0.3-3-2.7-3.1 -3.5-0.1-7.1 0-10.6 0 -3.5 0-3.8 0.2-3.7 3.6 0.1 7.2 0.4 14.5 0.6 21.7C268.2 119 264.8 119 261.5 119zM344.5 119c-1.7-0.4-3.4-0.7-5.1-1.1 -4.4-1.2-8.9-2.5-13.3-3.8 -1.8-0.6-3-1.9-3.2-3.8 -0.5-4.5-0.9-9-1.3-13.5 -0.2-2.3-0.3-4.7-0.5-7 0-0.9 0-1.8 0.1-2.6 0.1-1.8 0.3-3.5 0.4-5.3 0.4-4.8 0.8-9.6 1.2-14.3 0.2-1.9 1.4-3 3-3.7 5-2.2 10.1-3.8 15.6-4.2 5.7-0.4 11.4-0.7 17-0.6 6.1 0.1 12.2 0.5 18.2 1.3 3.8 0.6 7.5 2.2 11.2 3.5 2 0.7 3.2 2.1 3.5 4.4 0.5 5.1 1.3 10.1 1.6 15.2 0.4 8-0.1 16.1-1.2 24.1 -0.1 0.9-0.4 1.7-0.5 2.6 -0.2 1.6-1 2.7-2.5 3.4 -4.3 2.2-8.9 3.7-13.7 4.4 -2.5 0.4-5 0.8-7.5 1.2C359.8 119 352.2 119 344.5 119zM348.6 88.3c0 5.6 0 11.2 0 16.8 0 0.8 0 1.6 0 2.4 0 1.3 0.7 1.9 2 2.1 4.2 0.7 8.4 0.6 12.6 0 1.1-0.2 1.8-0.7 1.9-1.9 0.2-2.6 0.6-5.3 0.6-7.9 0-9.8 0.4-19.6-0.6-29.4 -0.2-2.1-0.5-2.5-2.7-2.6 -3.5-0.1-7.1-0.1-10.6 0 -2.9 0-3.2 0.3-3.2 3.2C348.6 76.8 348.6 82.5 348.6 88.3zM680.8 119c-1.3-0.3-2.7-0.4-4-0.8 -4.7-1.3-9.4-2.6-14.1-4 -2.3-0.7-3.6-2.2-3.8-4.7 -0.2-3.6-0.8-7.2-1-10.8 -0.1-2.2 0.4-2.6 2.6-2.6 3.7 0 7.4 0.3 11.2 0.4 3.2 0.1 6.5 0.1 9.7 0.1 3.3 0 3.5 0.2 3.5 3.5 0 2 0 3.9 0 5.9 0 3.2 0.2 3.1 3.2 3.6 3.6 0.6 7.2 0.4 10.8-0.1 2-0.3 2.4-0.5 2.4-2.5 0.1-3.6 0.1-7.3 0-10.9 0-2-0.4-2.3-2.5-2.5 -3.8-0.3-7.6-0.4-11.4-0.6 -8-0.6-16.1-0.3-23.9-2.5 -0.9-0.3-1.9-0.4-2.8-0.7 -2.7-0.9-3.6-1.9-3.4-4.7 0.4-5.8 1.1-11.5 1.6-17.2 0.2-2.3 1.6-3.6 3.5-4.3 4.8-1.9 9.8-3.6 15-3.9 5.6-0.3 11.2-0.7 16.7-0.6 6.2 0.1 12.4 0.4 18.4 1.3 3.9 0.6 7.7 2.2 11.5 3.6 2 0.7 3.1 2.2 3.2 4.5 0.3 3.4 0.8 6.8 1 10.2 0.1 2.2-0.4 2.6-2.5 2.7 -7.1 0.1-14.1 0.1-21.2 0 -2.1 0-2.6-0.4-2.9-2.5 -0.3-1.9-0.2-3.9-0.3-5.9 0-1.1 0-2.2-0.1-3.2 -0.1-1.2-0.7-1.9-1.8-1.9 -4.2 0-8.4 0-12.7 0 -1.3 0-1.9 0.9-1.9 2.1 0 4-0.1 8 0 12.1 0 1.8 0.5 2.2 2.4 2.2 4.7 0.2 9.4 0.5 14.1 0.6 7.5 0.1 14.9 0.6 22.1 2.5 0.8 0.2 1.5 0.4 2.2 0.7 2.7 1 3.4 2.1 3.2 4.9 -0.5 5.5-1.2 10.9-1.6 16.4 -0.2 2.4-1.4 3.7-3.5 4.6 -5.5 2.4-11.3 3.8-17.3 4.4 -1 0.1-1.9 0.4-2.8 0.6C696.1 119 688.5 119 680.8 119zM605.4 119c-0.6-0.2-1.3-0.5-1.9-0.6 -3.4-0.3-6.8-0.5-10.3-0.6 -2.9-0.2-3.2-0.4-3.8-3.3 -1.6-7.6-2.2-15.3-2.3-23.1 -0.1-8.9 0.3-17.8 1.9-26.6 0.8-4.4 1.1-4.8 5.6-5.2 4.7-0.3 9.4-0.5 14.1-0.7 6.7-0.2 13.3-0.6 20-0.5 5.6 0.1 11.1 0.6 16.7 1 2.6 0.2 5.3 0.5 7.9 0.6 1.6 0.1 2.2 1 2.5 2.4 0.2 1.1 0.5 2.1 0.6 3.2 0.5 2.7-0.2 3.4-2.9 3.2 -2.6-0.2-5.3-0.4-7.9-0.5 -9-0.2-18-0.4-27-0.6 -4.2-0.1-4.3 0-4.3 4.2 0 2.8 0 5.7 0 8.5 0 3.5 0.2 3.7 3.6 3.7 6 0 12 0 18 0 0.8 0 1.6 0 2.4 0 2.1 0.1 2.4 0.4 2.5 2.4 0.1 1.4 0 2.7 0 4.1 0 1.4-0.7 2.2-2.2 2.2 -0.3 0-0.6 0-0.9 0 -6.8 0.2-13.5 0.4-20.3 0.6 -2.8 0.1-3.1 0.4-3.1 3 -0.1 3.3-0.1 6.7 0 10 0 2.5 0.4 2.9 3 2.9 8.6 0 17.3 0.1 25.9 0 4.3-0.1 8.6-0.6 13.1-0.9 0.6 3-0.1 5.6-1.3 8.1 -0.3 0.6-1.7 0.9-2.6 1 -3.4 0.3-6.8 0.4-10.3 0.7 -0.9 0.1-1.7 0.4-2.5 0.6C628.2 119 616.8 119 605.4 119zM348.1 0c1.5 0.2 3.1 0.5 4.6 0.6 2.9 0.2 3.5 0.5 4 3.3 0.6 3.5 1.1 7 1.4 10.5 0.3 3.7 0.8 7.5 0.5 11.1 -0.4 5.8-1.2 11.5-1.9 17.2 -0.2 1.5-0.9 2.5-2.6 2.7 -5 0.3-10 0.7-14.9 1.1 -1.8 0.1-2.8-0.9-3.8-2.3 -2.7-3.9-5.6-7.8-8.4-11.7 -0.6-0.8-1.2-1.5-2.3-2.1 0 1.2-0.1 2.4-0.1 3.7 0.1 3.4 0.1 6.9 0.3 10.3 0.1 1.4-0.3 2.1-1.7 2.2 -0.3 0-0.6 0.1-0.9 0 -4.8-0.4-9.6-0.8-14.3-1.1 -1.8-0.1-2.5-1-2.8-2.8 -1.4-8.2-2.2-16.5-1.7-24.9 0.3-4.6 1-9.2 1.7-13.7 0.4-2.7 1.2-3.2 3.9-3.4 1.6-0.1 3.3-0.4 4.9-0.6 3.7 0 7.5 0 11.2 0 3.4 5.9 7.6 11.1 12 16.4 0.3-1.8 0.4-3.5 0.4-5.2 -0.1-3.7-0.4-7.4-0.6-11.1C340.6 0 344.3 0 348.1 0zM649 0c1.2 0.2 2.5 0.6 3.7 0.6 4.6 0 8.9 1.2 13.2 2.6 2.4 0.8 3.5 2.4 3.8 5 0.8 6.4 1.4 12.9 1 19.3 -0.3 4.9-1.2 9.7-1.8 14.6 -0.3 2.1-1.2 3.3-3.6 3.4 -4.4 0.2-8.8 0.8-13.2 1 -2.8 0.1-3.2-0.3-3.1-3.3 0.1-4.2 0.4-8.4 0.6-12.6 0-0.7 0-1.4 0-2.1 0-1.3-0.7-2-2-2 -2.9 0-5.9 0-8.8 0 -1.5 0-2.1 0.9-2.1 2.3 0.1 4.7 0.2 9.4 0.4 14.1 0 0.5 0.1 1 0.1 1.5 0 1.3-0.6 2-1.9 2.1 -0.3 0-0.6 0.1-0.9 0 -4.7-0.4-9.4-0.8-14-1.1 -2-0.1-2.9-1.2-3.2-3.1 -1.5-9.3-2.4-18.6-1.2-28.1 0.3-2.2 0.6-4.5 0.7-6.7 0.1-2.1 1.1-3.4 3-3.9 3.5-1.1 7.1-2 10.7-3 0.9-0.3 1.9-0.4 2.8-0.6C638.4 0 643.7 0 649 0zM643.2 7.1c-1.5 0-2.9 0-4.4 0 -1.4 0-2.2 0.8-2.2 2.2 0 2.6 0 5.3 0 7.9 0 1.4 0.7 2.2 2.1 2.2 2.9 0 5.9 0 8.8 0 1.3 0 2-0.7 2-2 0-2.7 0-5.5 0-8.2 0-1.5-0.9-2.1-2.2-2.1C646 7.1 644.6 7.1 643.2 7.1zM533.6 0c3.3 0.8 6.6 1.7 10 2.3 4.3 0.8 6.9 2.9 6.9 7.6 0 2.3 0.5 4.7 0.7 7 0.2 2.2-0.4 3.1-2.5 3.8 -2.4 0.8-4.8 1.4-7.2 2.5 2.1 0.5 4.3 1 6.4 1.6 2.8 0.8 3.6 1.9 3.3 4.7 -0.5 4.3-1.1 8.5-1.7 12.8 -0.3 1.9-1.1 3-3.2 3.2 -4.6 0.3-9.2 0.8-13.8 1 -2.7 0.1-3.1-0.4-3-3.1 0.1-4.2 0.5-8.4 0.5-12.6 0.1-4.2 0-4.3-4.2-4.3 -2.1 0-4.1-0.1-6.2 0 -2 0.1-2.5 0.5-2.5 2.4 0 4.3 0.2 8.6 0.4 12.9 0 0.4 0.1 0.8 0.1 1.2 0.2 2.9-0.3 3.6-3.3 3.4 -4.6-0.2-9.2-0.7-13.7-1.1 -1.8-0.1-2.6-1.1-2.8-2.8 -1.2-7.8-2.3-15.5-1.8-23.4 0.3-5.1 1.1-10.1 1.8-15.2 0.3-2.3 0.7-2.6 3-2.9 2.5-0.3 5.1-0.4 7.6-0.6 1.1-0.1 2.3-0.4 3.4-0.6C519.1 0 526.3 0 533.6 0zM523.7 7.1c-1.5 0-2.9 0-4.4 0 -1.4 0-2.2 0.7-2.2 2.2 0 2.6 0 5.3 0 7.9 0 1.4 0.6 2.2 2.1 2.2 2.9 0 5.9 0 8.8 0 1.3 0 2-0.7 2-2 0-2.7 0-5.5 0-8.2 0-1.5-0.8-2.1-2.2-2.1C526.4 7.1 525.1 7.1 523.7 7.1zM288.6 0c1.3 0.2 2.7 0.5 4 0.6 3.2 0.2 3.7 0.4 4.3 3.6 0.7 3.5 1.4 7 1.5 10.5 0.1 6.3-0.2 12.5-0.4 18.8 -0.1 1.9-0.5 3.7-0.6 5.5 -0.1 1.8-1.1 2.8-2.6 3.5 -3.8 1.8-7.7 3-11.8 3.3 -6.3 0.4-12.7 0.7-19.1 0.6 -5.2-0.1-10.3-1.4-15.2-3.1 -2.5-0.8-4-2.4-4.2-5.1 -0.4-5.4-1.3-10.7-1.1-16.1 0.1-6.1 1.1-12.3 1.8-18.4 0.3-2.6 1.1-3 3.7-3.1 1.4-0.1 2.9-0.4 4.3-0.6 3.9 0 7.9 0 11.8 0 -0.2 7.3-0.4 14.7-0.6 22 -0.1 4.4 0 8.8 0 13.2 0 0.8 0 1.6 0.1 2.3 0.1 1.2 0.7 1.8 1.9 1.8 3 0 6.1 0 9.1 0 1.2 0 1.8-0.7 1.9-1.8 0.1-0.9 0.1-1.8 0.1-2.6 -0.2-11.6 0.6-23.3-0.6-34.9C280.7 0 284.7 0 288.6 0zM587.8 0c1.5 0.2 3.1 0.6 4.6 0.6 4.7-0.1 9.1 1.1 13.5 2.6 2.5 0.9 3.9 2.5 4.1 5.1 0.2 2.2 0.6 4.5 0.7 6.7 0.1 2-0.4 2.5-2.4 2.5 -5.3 0.1-10.6 0.1-15.9 0 -2 0-2.6-0.7-2.8-2.7 -0.1-1.8 0-3.5-0.1-5.3 -0.1-2-0.5-2.5-2.4-2.5 -2.4-0.1-4.9-0.1-7.4 0 -2.1 0.1-2.4 0.4-2.6 2.4 -0.2 2.4-0.5 4.9-0.6 7.3 0 2.2 0.4 2.5 2.6 2.6 4.5 0.2 9 0.4 13.5 0.6 4.9 0.3 9.8 0.8 14.5 2.1 3 0.8 3.6 1.4 3.5 4.5 -0.2 4.2-0.7 8.4-1 12.6 -0.1 1.5-1 2.5-2.3 3.1 -3.8 1.9-7.9 2.9-12.1 3.5 -6.4 0.9-12.9 0.8-19.4 0.6 -5-0.2-9.9-1.4-14.7-3 -3-1-4.5-2.9-4.6-6.1 -0.1-2-0.5-4.1-0.5-6.1 0-1.8 0.5-2.3 2.3-2.3 5.3-0.1 10.6-0.1 15.9 0 1.8 0 2.1 0.5 2.3 2.3 0.2 1.9 0.5 3.9 0.6 5.8 0.1 1.5 0.8 2.4 2.3 2.4 2.6 0 5.1 0.1 7.7 0 1.9-0.1 2.3-0.5 2.4-2.6 0.2-2.6 0.2-5.3 0.4-7.9 0.1-1.1-0.4-1.7-1.4-1.8 -1.4-0.2-2.7-0.5-4.1-0.6 -4.7-0.3-9.4-0.6-14.1-0.6 -4 0-7.8-1-11.6-1.9 -2.3-0.5-2.8-1.2-2.7-3.5 0.1-4.2 0.4-8.4 0.7-12.6 0.2-2.5 1.7-4.2 4.1-4.9 3.3-0.9 6.7-1.6 10-2.4 0.9-0.2 1.9-0.4 2.8-0.6C578.3 0 583 0 587.8 0zM431.1 0c1.5 0.2 3.1 0.5 4.6 0.6 3.2 0.2 3.6 0.6 3.1 3.7 -1.5 8.6-4.4 16.7-7.7 24.7 -2 4.9-4.2 9.7-6.1 14.7 -0.8 2.1-2.1 3-4.4 2.9 -4.3-0.2-8.6-0.1-13 0 -2.2 0-3.4-0.8-4.2-2.8 -3.1-7.9-6.5-15.6-9.4-23.5 -1.9-5.3-3.2-10.9-4.6-16.4 -0.6-2.4-0.1-2.9 2.4-3.2 1.7-0.2 3.5-0.4 5.2-0.6 3.7 0 7.5 0 11.2 0 1.6 5.6 3.5 11.1 6.1 17 2.3-6 4.4-11.4 5.7-17C423.6 0 427.4 0 431.1 0zM560.7 119c-0.9-0.3-1.9-0.6-2.8-0.7 -1.8-0.4-3.1-1.2-3.1-3.2 0-1.3-0.5-2.5-0.5-3.8 -0.2-10.5-0.6-21-0.6-31.4 0-5.8 0.7-11.5 1-17.3 0.1-1.9 1.1-2.7 2.9-3 6.4-1.4 12.8-1.4 19.2 0.1 2.1 0.5 2.4 0.8 2.6 2.9 1.2 12.1 1.4 24.3 1.1 36.4 -0.1 5.5-0.8 10.9-1.1 16.4 -0.1 1.5-0.7 2.3-2.2 2.7 -1.2 0.3-2.4 0.7-3.6 1.1C569.3 119 565 119 560.7 119zM486.5 0c1.3 0.2 2.7 0.5 4 0.6 3.6 0.1 4.1 0.6 4.8 4.2 0.1 0.8 0.1 1.5 0.2 2.7 -2.8 0-5.4 0.1-8 0 -3.9-0.1-7.8-0.4-11.7-0.5 -3.3-0.1-6.7-0.1-10 0 -2.4 0-2.7 0.4-2.8 2.8 -0.1 2.2-0.1 4.3 0 6.5 0.1 2.7 0.4 3.1 3.1 3.1 3.5 0.1 7.1 0 10.6 0 0.9 0 1.8 0 2.7 0 4.2 0 4.7 0.6 4.3 4.8 -0.1 1.4-0.8 2.2-2.2 2.2 -2.1 0-4.1 0-6.2 0 -3.1 0-6.3 0-9.4 0 -2.3 0.1-2.7 0.4-2.8 2.8 -0.1 2.6-0.1 5.1 0 7.7 0.1 2 0.5 2.5 2.5 2.5 4.8-0.1 9.6-0.3 14.4-0.4 1.6 0 3.1 0 4.7-0.1 2.7-0.1 5.5-0.3 8.2-0.5 0.8 0 1.7 0 2.6 0 0.4 2.1 0 3.9-0.7 5.5 -0.2 0.6-1 1.2-1.7 1.3 -1.4 0.4-2.9 0.6-4.4 0.6 -7.6 0.3-15.3 0.6-22.9 0.6 -6.3 0-12.5-0.5-18.8-1 -3-0.2-2.9-0.5-3.5-3.4 -1.5-7.9-2.1-16-1.6-24 0.2-4.7 1-9.3 1.7-14 0.4-2.7 1.2-3.2 3.9-3.4 1.6-0.1 3.3-0.4 4.9-0.6C463.7 0 475.1 0 486.5 0zM696.7 0c-0.2 8.9-0.5 17.8-0.6 26.7 0 3.5 0.4 7 0.6 10.6 0.1 1.5 0.8 2.2 2.2 2.1 4.7-0.1 9.4-0.2 14.1-0.4 1 0 2-0.1 2.9-0.2 3.5-0.2 7-0.3 10.6-0.5 1.9-0.1 2.6 0.5 2.4 2.3 -0.1 1-0.2 2-0.6 2.9 -0.3 0.7-1.1 1.3-1.8 1.6 -1.1 0.4-2.3 0.5-3.5 0.6 -10.7 0.8-21.4 0.8-32 0.6 -3.7-0.1-7.4-0.7-11.1-1.1 -1.6-0.1-2.5-0.9-2.7-2.5 -0.5-4.7-1.2-9.3-1.6-14 -0.2-2.9-0.2-5.9 0-8.8 0.3-5.2 0.8-10.3 1.4-15.5 0.4-3.6 1-3.8 4.6-3.9 1.3-0.1 2.7-0.4 4-0.6C689.3 0 693 0 696.7 0zM380.5 0c2.3 0.7 2.8 2.3 3 4.7 0.9 8.6 0.4 17.2 0.5 25.9 0 4.2-0.4 8.4-0.6 12.6 -0.1 1.4-0.6 2.2-2 2.5 -4.9 1.1-9.9 1.4-14.8 0.2 -2.2-0.5-2.3-0.9-2.6-3.3 -1.1-10.8-0.4-21.5-0.5-32.3 0-2.5 0.4-5.1 0.6-7.6 0.1-1.8 1.8-1.8 2.9-2.6C371.4 0 375.9 0 380.5 0z" fill="#3C3C3C"/></svg>